<?xml version="1.0" encoding="UTF-8" standalone="no"?>
<!-- Created with Inkscape (http://www.inkscape.org/) -->

<svg
   xmlns:dc="http://purl.org/dc/elements/1.1/"
   xmlns:cc="http://creativecommons.org/ns#"
   xmlns:rdf="http://www.w3.org/1999/02/22-rdf-syntax-ns#"
   xmlns:svg="http://www.w3.org/2000/svg"
   xmlns="http://www.w3.org/2000/svg"
   xmlns:sodipodi="http://sodipodi.sourceforge.net/DTD/sodipodi-0.dtd"
   xmlns:inkscape="http://www.inkscape.org/namespaces/inkscape"
   width="116mm"
   height="94mm"
   viewBox="0 0 116 94"
   version="1.1"
   id="svg8"
   inkscape:version="0.92.4 5da689c313, 2019-01-14"
   sodipodi:docname="aminotec logo.svg"
   inkscape:export-filename="/home/mega/Downloads/pestrez/pastrezVlist6.png"
   inkscape:export-xdpi="300.13"
   inkscape:export-ydpi="300.13">
  <defs
     id="defs2">
    <clipPath
       clipPathUnits="userSpaceOnUse"
       id="clipPath300">
      <path
         d="M 2,0 H 800 V 620.001 H 2 Z"
         id="path298"
         inkscape:connector-curvature="0" />
    </clipPath>
    <clipPath
       clipPathUnits="userSpaceOnUse"
       id="clipPath308">
      <path
         d="M 12.9607,426.554 H 212.25 V 141.55 H 12.9607 Z"
         id="path306"
         inkscape:connector-curvature="0" />
    </clipPath>
    <clipPath
       clipPathUnits="userSpaceOnUse"
       id="clipPath324">
      <path
         d="M 80.7363,252.765 H 308.532 V -22.3419 H 80.7363 Z"
         id="path322"
         inkscape:connector-curvature="0" />
    </clipPath>
    <clipPath
       clipPathUnits="userSpaceOnUse"
       id="clipPath340">
      <path
         d="M -41.6083,418.626 H 75.5032 V 301.778 H -41.6083 Z"
         id="path338"
         inkscape:connector-curvature="0" />
    </clipPath>
    <clipPath
       clipPathUnits="userSpaceOnUse"
       id="clipPath356">
      <path
         d="m 189.78,36.0524 h 47.441 V -16.0572 H 189.78 Z"
         id="path354"
         inkscape:connector-curvature="0" />
    </clipPath>
    <clipPath
       clipPathUnits="userSpaceOnUse"
       id="clipPath384">
      <path
         d="M 253.011,133.484 H 326.81 V 77.6421 h -73.799 z"
         id="path382"
         inkscape:connector-curvature="0" />
    </clipPath>
    <clipPath
       clipPathUnits="userSpaceOnUse"
       id="clipPath400">
      <path
         d="m 274.953,111.63 h 50.08 V 78.9858 h -50.08 z"
         id="path398"
         inkscape:connector-curvature="0" />
    </clipPath>
    <clipPath
       clipPathUnits="userSpaceOnUse"
       id="clipPath516">
      <path
         d="M 44.7253,191.251 H 79.049 V 159.627 H 44.7253 Z"
         id="path514"
         inkscape:connector-curvature="0" />
    </clipPath>
    <clipPath
       clipPathUnits="userSpaceOnUse"
       id="clipPath1412">
      <path
         d="M 326.282,135.419 H 428.707 V 64.905 H 326.282 Z"
         id="path1410"
         inkscape:connector-curvature="0" />
    </clipPath>
    <clipPath
       clipPathUnits="userSpaceOnUse"
       id="clipPath1476">
      <path
         d="M 382.74,153.487 H 617.857 V -32.701 H 382.74 Z"
         id="path1474"
         inkscape:connector-curvature="0" />
    </clipPath>
    <clipPath
       clipPathUnits="userSpaceOnUse"
       id="clipPath1528">
      <path
         d="m 241.114,149.921 h 56.608 V 85.2342 h -56.608 z"
         id="path1526"
         inkscape:connector-curvature="0" />
    </clipPath>
    <clipPath
       clipPathUnits="userSpaceOnUse"
       id="clipPath1568">
      <path
         d="m 256.589,160.106 h 44.385 v -23.911 h -44.385 z"
         id="path1566"
         inkscape:connector-curvature="0" />
    </clipPath>
    <clipPath
       clipPathUnits="userSpaceOnUse"
       id="clipPath1584">
      <path
         d="m 234.58,126.756 h 20.532 V 96.874 H 234.58 Z"
         id="path1582"
         inkscape:connector-curvature="0" />
    </clipPath>
    <clipPath
       clipPathUnits="userSpaceOnUse"
       id="clipPath1600">
      <path
         d="m 251.13,132.366 h 43.616 V 81.4752 H 251.13 Z"
         id="path1598"
         inkscape:connector-curvature="0" />
    </clipPath>
    <clipPath
       clipPathUnits="userSpaceOnUse"
       id="clipPath1616">
      <path
         d="m 641.085,73.3686 h 20.517 v -18.338 h -20.517 z"
         id="path1614"
         inkscape:connector-curvature="0" />
    </clipPath>
    <clipPath
       clipPathUnits="userSpaceOnUse"
       id="clipPath1632">
      <path
         d="m 662.099,51.8203 h 20.045 V 6.30283 h -20.045 z"
         id="path1630"
         inkscape:connector-curvature="0" />
    </clipPath>
    <clipPath
       clipPathUnits="userSpaceOnUse"
       id="clipPath1648">
      <path
         d="m 669.232,24.9586 h 10.035 V -2.26254 h -10.035 z"
         id="path1646"
         inkscape:connector-curvature="0" />
    </clipPath>
    <clipPath
       clipPathUnits="userSpaceOnUse"
       id="clipPath1704">
      <path
         d="M 176.665,64.6702 H 489.793 V -14.6754 H 176.665 Z"
         id="path1702"
         inkscape:connector-curvature="0" />
    </clipPath>
    <clipPath
       clipPathUnits="userSpaceOnUse"
       id="clipPath1808">
      <path
         d="M 654.889,241.946 H 843.535 V -17.1065 H 654.889 Z"
         id="path1806"
         inkscape:connector-curvature="0" />
    </clipPath>
    <clipPath
       clipPathUnits="userSpaceOnUse"
       id="clipPath1828">
      <path
         d="m 729.2,225.089 h 58.508 V 71.6737 H 729.2 Z"
         id="path1826"
         inkscape:connector-curvature="0" />
    </clipPath>
    <clipPath
       clipPathUnits="userSpaceOnUse"
       id="clipPath4160">
      <path
         d="m 193.093,60.4657 h 3.695 v -2.9788 h -3.695 z"
         id="path4158"
         inkscape:connector-curvature="0" />
    </clipPath>
    <clipPath
       clipPathUnits="userSpaceOnUse"
       id="clipPath4176">
      <path
         d="m 194.855,55.1164 h 2.704 v -1.6698 h -2.704 z"
         id="path4174"
         inkscape:connector-curvature="0" />
    </clipPath>
    <clipPath
       clipPathUnits="userSpaceOnUse"
       id="clipPath4192">
      <path
         d="m 203.25,54.9873 h 2.872 v -2.8757 h -2.872 z"
         id="path4190"
         inkscape:connector-curvature="0" />
    </clipPath>
    <clipPath
       clipPathUnits="userSpaceOnUse"
       id="clipPath4208">
      <path
         d="m 210.069,48.9468 h 2.159 v -1.8432 h -2.159 z"
         id="path4206"
         inkscape:connector-curvature="0" />
    </clipPath>
    <clipPath
       clipPathUnits="userSpaceOnUse"
       id="clipPath4224">
      <path
         d="m 218.879,50.2987 h 2.424 v -4.4035 h -2.424 z"
         id="path4222"
         inkscape:connector-curvature="0" />
    </clipPath>
    <clipPath
       clipPathUnits="userSpaceOnUse"
       id="clipPath4240">
      <path
         d="m 220.57,39.8334 h 1.47 v -1.4706 h -1.47 z"
         id="path4238"
         inkscape:connector-curvature="0" />
    </clipPath>
    <clipPath
       clipPathUnits="userSpaceOnUse"
       id="clipPath4256">
      <path
         d="m 211.913,40.246 h 3.289 v -2.6606 h -3.289 z"
         id="path4254"
         inkscape:connector-curvature="0" />
    </clipPath>
    <clipPath
       clipPathUnits="userSpaceOnUse"
       id="clipPath4272">
      <path
         d="m 229.594,44.5135 h 1.462 v -1.4616 h -1.462 z"
         id="path4270"
         inkscape:connector-curvature="0" />
    </clipPath>
    <clipPath
       clipPathUnits="userSpaceOnUse"
       id="clipPath4288">
      <path
         d="m 229.215,36.2899 h 2.653 v -1.7183 h -2.653 z"
         id="path4286"
         inkscape:connector-curvature="0" />
    </clipPath>
    <clipPath
       clipPathUnits="userSpaceOnUse"
       id="clipPath4304">
      <path
         d="m 230.313,29.3806 h 2.556 v -1.9673 h -2.556 z"
         id="path4302"
         inkscape:connector-curvature="0" />
    </clipPath>
    <clipPath
       clipPathUnits="userSpaceOnUse"
       id="clipPath4320">
      <path
         d="m 241.941,38.3761 h 2.88 v -3.2642 h -2.88 z"
         id="path4318"
         inkscape:connector-curvature="0" />
    </clipPath>
    <clipPath
       clipPathUnits="userSpaceOnUse"
       id="clipPath4336">
      <path
         d="m 245.829,31.5722 h 2.637 V 28.937 h -2.637 z"
         id="path4334"
         inkscape:connector-curvature="0" />
    </clipPath>
    <clipPath
       clipPathUnits="userSpaceOnUse"
       id="clipPath4352">
      <path
         d="m 243.07,20.2814 h 1.685 v -0.9826 h -1.685 z"
         id="path4350"
         inkscape:connector-curvature="0" />
    </clipPath>
    <clipPath
       clipPathUnits="userSpaceOnUse"
       id="clipPath4368">
      <path
         d="m 251.472,40.6179 h 1.712 v -2.7176 h -1.712 z"
         id="path4366"
         inkscape:connector-curvature="0" />
    </clipPath>
    <clipPath
       clipPathUnits="userSpaceOnUse"
       id="clipPath4384">
      <path
         d="m 232.379,48.8836 h 1.691 v -2.3543 h -1.691 z"
         id="path4382"
         inkscape:connector-curvature="0" />
    </clipPath>
    <clipPath
       clipPathUnits="userSpaceOnUse"
       id="clipPath4400">
      <path
         d="m 234.593,43.1342 h 1.948 v -1.9475 h -1.948 z"
         id="path4398"
         inkscape:connector-curvature="0" />
    </clipPath>
    <clipPath
       clipPathUnits="userSpaceOnUse"
       id="clipPath4416">
      <path
         d="m 221.542,31.1384 h 3.821 v -2.6458 h -3.821 z"
         id="path4414"
         inkscape:connector-curvature="0" />
    </clipPath>
    <clipPath
       clipPathUnits="userSpaceOnUse"
       id="clipPath4432">
      <path
         d="m 236.701,34.8344 h 1.997 v -2.3703 h -1.997 z"
         id="path4430"
         inkscape:connector-curvature="0" />
    </clipPath>
    <clipPath
       clipPathUnits="userSpaceOnUse"
       id="clipPath4448">
      <path
         d="m 238.522,26.2054 h 1.728 v -1.411 h -1.728 z"
         id="path4446"
         inkscape:connector-curvature="0" />
    </clipPath>
    <clipPath
       clipPathUnits="userSpaceOnUse"
       id="clipPath4464">
      <path
         d="m 216.552,33.401 h 2.301 v -2.0273 h -2.301 z"
         id="path4462"
         inkscape:connector-curvature="0" />
    </clipPath>
    <clipPath
       clipPathUnits="userSpaceOnUse"
       id="clipPath4480">
      <path
         d="m 216.573,58.324 h 2.991 v -3.3821 h -2.991 z"
         id="path4478"
         inkscape:connector-curvature="0" />
    </clipPath>
    <clipPath
       clipPathUnits="userSpaceOnUse"
       id="clipPath4496">
      <path
         d="m 212.204,64.0707 h 2.642 V 61.428 h -2.642 z"
         id="path4494"
         inkscape:connector-curvature="0" />
    </clipPath>
    <clipPath
       clipPathUnits="userSpaceOnUse"
       id="clipPath4512">
      <path
         d="m 201.76,72.0139 h 1.886 v -2.2737 h -1.886 z"
         id="path4510"
         inkscape:connector-curvature="0" />
    </clipPath>
    <clipPath
       clipPathUnits="userSpaceOnUse"
       id="clipPath4528">
      <path
         d="m 209.298,75.2728 h 2.976 v -3.0196 h -2.976 z"
         id="path4526"
         inkscape:connector-curvature="0" />
    </clipPath>
    <clipPath
       clipPathUnits="userSpaceOnUse"
       id="clipPath4544">
      <path
         d="m 254.075,15.7387 h 1.554 v -1.5542 h -1.554 z"
         id="path4542"
         inkscape:connector-curvature="0" />
    </clipPath>
    <clipPath
       clipPathUnits="userSpaceOnUse"
       id="clipPath4560">
      <path
         d="m 259.356,20.3988 h 2.341 v -2.0136 h -2.341 z"
         id="path4558"
         inkscape:connector-curvature="0" />
    </clipPath>
    <clipPath
       clipPathUnits="userSpaceOnUse"
       id="clipPath4576">
      <path
         d="m 261.05,13.3464 h 1.099 v -1.0983 h -1.099 z"
         id="path4574"
         inkscape:connector-curvature="0" />
    </clipPath>
    <clipPath
       clipPathUnits="userSpaceOnUse"
       id="clipPath4592">
      <path
         d="m 277.668,17.788 h 2.285 v -3.4459 h -2.285 z"
         id="path4590"
         inkscape:connector-curvature="0" />
    </clipPath>
    <clipPath
       clipPathUnits="userSpaceOnUse"
       id="clipPath4608">
      <path
         d="m 279.385,13.5797 h 2.472 v -1.873 h -2.472 z"
         id="path4606"
         inkscape:connector-curvature="0" />
    </clipPath>
    <clipPath
       clipPathUnits="userSpaceOnUse"
       id="clipPath4624">
      <path
         d="m 286.99,15.3414 h 2.822 v -3.6332 h -2.822 z"
         id="path4622"
         inkscape:connector-curvature="0" />
    </clipPath>
    <clipPath
       clipPathUnits="userSpaceOnUse"
       id="clipPath4640">
      <path
         d="m 288.42,29.0544 h 1.648 v -3.1412 h -1.648 z"
         id="path4638"
         inkscape:connector-curvature="0" />
    </clipPath>
    <clipPath
       clipPathUnits="userSpaceOnUse"
       id="clipPath4656">
      <path
         d="m 294.689,18.9083 h 2.085 v -3.1562 h -2.085 z"
         id="path4654"
         inkscape:connector-curvature="0" />
    </clipPath>
    <clipPath
       clipPathUnits="userSpaceOnUse"
       id="clipPath4672">
      <path
         d="m 300.795,13.6125 h 1.795 v -2.6332 h -1.795 z"
         id="path4670"
         inkscape:connector-curvature="0" />
    </clipPath>
    <clipPath
       clipPathUnits="userSpaceOnUse"
       id="clipPath4692">
      <path
         d="m 299.72,36.2273 h 0.772 v -1.1417 h -0.772 z"
         id="path4690"
         inkscape:connector-curvature="0" />
    </clipPath>
    <clipPath
       clipPathUnits="userSpaceOnUse"
       id="clipPath4712">
      <path
         d="m 321.721,27.5588 h 0.858 v -1.5101 h -0.858 z"
         id="path4710"
         inkscape:connector-curvature="0" />
    </clipPath>
    <clipPath
       clipPathUnits="userSpaceOnUse"
       id="clipPath4732">
      <path
         d="m 314.21,24.4395 h 2.315 v -4.0084 h -2.315 z"
         id="path4730"
         inkscape:connector-curvature="0" />
    </clipPath>
    <clipPath
       clipPathUnits="userSpaceOnUse"
       id="clipPath4748">
      <path
         d="m 306.795,28.7308 h 2.287 v -3.1509 h -2.287 z"
         id="path4746"
         inkscape:connector-curvature="0" />
    </clipPath>
    <clipPath
       clipPathUnits="userSpaceOnUse"
       id="clipPath4764">
      <path
         d="m 298.906,28.6934 h 0.863 v -2.2872 h -0.863 z"
         id="path4762"
         inkscape:connector-curvature="0" />
    </clipPath>
    <clipPath
       clipPathUnits="userSpaceOnUse"
       id="clipPath4780">
      <path
         d="m 340.182,14.537 h 1.473 v -4.3391 h -1.473 z"
         id="path4778"
         inkscape:connector-curvature="0" />
    </clipPath>
    <clipPath
       clipPathUnits="userSpaceOnUse"
       id="clipPath4796">
      <path
         d="m 345.958,13.1046 h 1.584 V 9.44731 h -1.584 z"
         id="path4794"
         inkscape:connector-curvature="0" />
    </clipPath>
    <clipPath
       clipPathUnits="userSpaceOnUse"
       id="clipPath4812">
      <path
         d="m 351.315,15.2947 h 0.571 v -2.9652 h -0.571 z"
         id="path4810"
         inkscape:connector-curvature="0" />
    </clipPath>
    <clipPath
       clipPathUnits="userSpaceOnUse"
       id="clipPath4828">
      <path
         d="m 345.109,25.786 h 0.976 v -3.3834 h -0.976 z"
         id="path4826"
         inkscape:connector-curvature="0" />
    </clipPath>
    <clipPath
       clipPathUnits="userSpaceOnUse"
       id="clipPath4844">
      <path
         d="m 362.98,23.4446 h 1.031 v -4.6022 h -1.031 z"
         id="path4842"
         inkscape:connector-curvature="0" />
    </clipPath>
    <clipPath
       clipPathUnits="userSpaceOnUse"
       id="clipPath4860">
      <path
         d="m 368.93,34.9684 h 1.637 v -5.2137 h -1.637 z"
         id="path4858"
         inkscape:connector-curvature="0" />
    </clipPath>
    <clipPath
       clipPathUnits="userSpaceOnUse"
       id="clipPath4876">
      <path
         d="m 373.087,23.4247 h 0.99 v -5.6144 h -0.99 z"
         id="path4874"
         inkscape:connector-curvature="0" />
    </clipPath>
    <clipPath
       clipPathUnits="userSpaceOnUse"
       id="clipPath4892">
      <path
         d="m 367.533,20.1195 h 0.651 v -3.6954 h -0.651 z"
         id="path4890"
         inkscape:connector-curvature="0" />
    </clipPath>
    <clipPath
       clipPathUnits="userSpaceOnUse"
       id="clipPath4908">
      <path
         d="m 381.919,35.3297 h 0.883 v -3.4021 h -0.883 z"
         id="path4906"
         inkscape:connector-curvature="0" />
    </clipPath>
    <clipPath
       clipPathUnits="userSpaceOnUse"
       id="clipPath4924">
      <path
         d="m 388.86,28.1421 h 1.147 v -4.5656 h -1.147 z"
         id="path4922"
         inkscape:connector-curvature="0" />
    </clipPath>
    <clipPath
       clipPathUnits="userSpaceOnUse"
       id="clipPath4940">
      <path
         d="m 382.3,18.0009 h 0.741 V 13.8215 H 382.3 Z"
         id="path4938"
         inkscape:connector-curvature="0" />
    </clipPath>
    <clipPath
       clipPathUnits="userSpaceOnUse"
       id="clipPath4956">
      <path
         d="m 393.337,18.3076 h 0.899 v -3.0147 h -0.899 z"
         id="path4954"
         inkscape:connector-curvature="0" />
    </clipPath>
    <clipPath
       clipPathUnits="userSpaceOnUse"
       id="clipPath4972">
      <path
         d="m 349.752,37.1695 h 1.435 v -3.4829 h -1.435 z"
         id="path4970"
         inkscape:connector-curvature="0" />
    </clipPath>
    <clipPath
       clipPathUnits="userSpaceOnUse"
       id="clipPath4988">
      <path
         d="m 342.849,37.1134 h 1.467 v -4.0869 h -1.467 z"
         id="path4986"
         inkscape:connector-curvature="0" />
    </clipPath>
    <clipPath
       clipPathUnits="userSpaceOnUse"
       id="clipPath5004">
      <path
         d="m 419.626,18.6253 h 0.512 v -2.8906 h -0.512 z"
         id="path5002"
         inkscape:connector-curvature="0" />
    </clipPath>
    <clipPath
       clipPathUnits="userSpaceOnUse"
       id="clipPath5020">
      <path
         d="m 426.423,23.3993 h 1.541 v -2.6572 h -1.541 z"
         id="path5018"
         inkscape:connector-curvature="0" />
    </clipPath>
    <clipPath
       clipPathUnits="userSpaceOnUse"
       id="clipPath5036">
      <path
         d="m 426.143,15.1241 h 1.069 V 10.588 h -1.069 z"
         id="path5034"
         inkscape:connector-curvature="0" />
    </clipPath>
    <clipPath
       clipPathUnits="userSpaceOnUse"
       id="clipPath5052">
      <path
         d="m 437.616,11.8347 h 0.661 V 9.51572 h -0.661 z"
         id="path5050"
         inkscape:connector-curvature="0" />
    </clipPath>
    <clipPath
       clipPathUnits="userSpaceOnUse"
       id="clipPath5068">
      <path
         d="m 434.623,28.8723 h 2.051 v -3.1227 h -2.051 z"
         id="path5066"
         inkscape:connector-curvature="0" />
    </clipPath>
    <clipPath
       clipPathUnits="userSpaceOnUse"
       id="clipPath5084">
      <path
         d="m 442.231,18.0108 h 1.629 v -4.1652 h -1.629 z"
         id="path5082"
         inkscape:connector-curvature="0" />
    </clipPath>
    <clipPath
       clipPathUnits="userSpaceOnUse"
       id="clipPath5100">
      <path
         d="m 432.691,7.68266 h 1.16 V 4.00797 h -1.16 z"
         id="path5098"
         inkscape:connector-curvature="0" />
    </clipPath>
    <clipPath
       clipPathUnits="userSpaceOnUse"
       id="clipPath5584">
      <path
         d="m 400.498,144.415 h 6.447 v -5.298 h -6.447 z"
         id="path5582"
         inkscape:connector-curvature="0" />
    </clipPath>
    <clipPath
       clipPathUnits="userSpaceOnUse"
       id="clipPath5600">
      <path
         d="m 397.662,148.297 h 3.114 v -2.668 h -3.114 z"
         id="path5598"
         inkscape:connector-curvature="0" />
    </clipPath>
    <clipPath
       clipPathUnits="userSpaceOnUse"
       id="clipPath5616">
      <path
         d="m 397.244,153.767 h 2.733 v -2.214 h -2.733 z"
         id="path5614"
         inkscape:connector-curvature="0" />
    </clipPath>
    <clipPath
       clipPathUnits="userSpaceOnUse"
       id="clipPath5632">
      <path
         d="m 409.756,134.341 h 3.653 v -2.911 h -3.653 z"
         id="path5630"
         inkscape:connector-curvature="0" />
    </clipPath>
    <clipPath
       clipPathUnits="userSpaceOnUse"
       id="clipPath5648">
      <path
         d="m 413.39,144.648 h 1.924 v -2.51 h -1.924 z"
         id="path5646"
         inkscape:connector-curvature="0" />
    </clipPath>
    <clipPath
       clipPathUnits="userSpaceOnUse"
       id="clipPath5664">
      <path
         d="m 419.454,136.437 h 2.166 v -2.139 h -2.166 z"
         id="path5662"
         inkscape:connector-curvature="0" />
    </clipPath>
    <clipPath
       clipPathUnits="userSpaceOnUse"
       id="clipPath5680">
      <path
         d="m 415.172,125.724 h 4.989 v -3.046 h -4.989 z"
         id="path5678"
         inkscape:connector-curvature="0" />
    </clipPath>
    <clipPath
       clipPathUnits="userSpaceOnUse"
       id="clipPath5696">
      <path
         d="m 425.637,145.655 h 2.252 v -3.02 h -2.252 z"
         id="path5694"
         inkscape:connector-curvature="0" />
    </clipPath>
    <clipPath
       clipPathUnits="userSpaceOnUse"
       id="clipPath5712">
      <path
         d="m 427.911,130.143 h 1.617 v -1.655 h -1.617 z"
         id="path5710"
         inkscape:connector-curvature="0" />
    </clipPath>
    <clipPath
       clipPathUnits="userSpaceOnUse"
       id="clipPath5728">
      <path
         d="m 425.659,115.96 h 4.444 v -3.813 h -4.444 z"
         id="path5726"
         inkscape:connector-curvature="0" />
    </clipPath>
    <clipPath
       clipPathUnits="userSpaceOnUse"
       id="clipPath5744">
      <path
         d="m 423.428,135.098 h 3.085 v -2.374 h -3.085 z"
         id="path5742"
         inkscape:connector-curvature="0" />
    </clipPath>
    <clipPath
       clipPathUnits="userSpaceOnUse"
       id="clipPath5760">
      <path
         d="m 432.649,122.097 h 2.986 v -2.864 h -2.986 z"
         id="path5758"
         inkscape:connector-curvature="0" />
    </clipPath>
    <clipPath
       clipPathUnits="userSpaceOnUse"
       id="clipPath5776">
      <path
         d="m 432.879,109.549 h 3.649 v -3.106 h -3.649 z"
         id="path5774"
         inkscape:connector-curvature="0" />
    </clipPath>
    <clipPath
       clipPathUnits="userSpaceOnUse"
       id="clipPath5792">
      <path
         d="m 423.867,120.813 h 3.04 v -1.873 h -3.04 z"
         id="path5790"
         inkscape:connector-curvature="0" />
    </clipPath>
    <clipPath
       clipPathUnits="userSpaceOnUse"
       id="clipPath5812">
      <path
         d="m 448.367,85.8688 h 2.14 v -1.2169 h -2.14 z"
         id="path5810"
         inkscape:connector-curvature="0" />
    </clipPath>
    <clipPath
       clipPathUnits="userSpaceOnUse"
       id="clipPath5828">
      <path
         d="m 454.823,91.6986 h 2.457 v -2.0999 h -2.457 z"
         id="path5826"
         inkscape:connector-curvature="0" />
    </clipPath>
    <clipPath
       clipPathUnits="userSpaceOnUse"
       id="clipPath5844">
      <path
         d="m 453.438,78.3754 h 2.637 v -1.6536 h -2.637 z"
         id="path5842"
         inkscape:connector-curvature="0" />
    </clipPath>
    <clipPath
       clipPathUnits="userSpaceOnUse"
       id="clipPath5860">
      <path
         d="m 468.071,90.1904 h 2.45 V 87.735 h -2.45 z"
         id="path5858"
         inkscape:connector-curvature="0" />
    </clipPath>
    <clipPath
       clipPathUnits="userSpaceOnUse"
       id="clipPath5876">
      <path
         d="m 463.47,99.4024 h 2.021 V 97.136 h -2.021 z"
         id="path5874"
         inkscape:connector-curvature="0" />
    </clipPath>
    <clipPath
       clipPathUnits="userSpaceOnUse"
       id="clipPath5892">
      <path
         d="m 459.876,84.9299 h 1.265 v -1.0303 h -1.265 z"
         id="path5890"
         inkscape:connector-curvature="0" />
    </clipPath>
    <clipPath
       clipPathUnits="userSpaceOnUse"
       id="clipPath5908">
      <path
         d="m 464.933,71.7133 h 1.445 v -1.0078 h -1.445 z"
         id="path5906"
         inkscape:connector-curvature="0" />
    </clipPath>
    <clipPath
       clipPathUnits="userSpaceOnUse"
       id="clipPath5924">
      <path
         d="m 460.669,61.7793 h 2.573 V 60.103 h -2.573 z"
         id="path5922"
         inkscape:connector-curvature="0" />
    </clipPath>
    <clipPath
       clipPathUnits="userSpaceOnUse"
       id="clipPath5940">
      <path
         d="m 455.342,68.0634 h 1.219 v -0.7338 h -1.219 z"
         id="path5938"
         inkscape:connector-curvature="0" />
    </clipPath>
    <clipPath
       clipPathUnits="userSpaceOnUse"
       id="clipPath5956">
      <path
         d="m 468.846,54.0851 h 3.1 v -1.9272 h -3.1 z"
         id="path5954"
         inkscape:connector-curvature="0" />
    </clipPath>
    <clipPath
       clipPathUnits="userSpaceOnUse"
       id="clipPath5972">
      <path
         d="m 472.684,67.8094 h 2.446 v -1.9847 h -2.446 z"
         id="path5970"
         inkscape:connector-curvature="0" />
    </clipPath>
    <clipPath
       clipPathUnits="userSpaceOnUse"
       id="clipPath5988">
      <path
         d="m 486.846,69.5167 h 2.288 v -1.8138 h -2.288 z"
         id="path5986"
         inkscape:connector-curvature="0" />
    </clipPath>
    <clipPath
       clipPathUnits="userSpaceOnUse"
       id="clipPath6004">
      <path
         d="m 481.103,80.1101 h 1.716 v -1.9817 h -1.716 z"
         id="path6002"
         inkscape:connector-curvature="0" />
    </clipPath>
    <clipPath
       clipPathUnits="userSpaceOnUse"
       id="clipPath6020">
      <path
         d="m 472.404,84.2163 h 1.993 v -1.7354 h -1.993 z"
         id="path6018"
         inkscape:connector-curvature="0" />
    </clipPath>
    <clipPath
       clipPathUnits="userSpaceOnUse"
       id="clipPath6036">
      <path
         d="m 470.922,75.7226 h 3.017 v -2.195 h -3.017 z"
         id="path6034"
         inkscape:connector-curvature="0" />
    </clipPath>
    <clipPath
       clipPathUnits="userSpaceOnUse"
       id="clipPath6052">
      <path
         d="m 487.35,86.892 h 2.486 v -2.0241 h -2.486 z"
         id="path6050"
         inkscape:connector-curvature="0" />
    </clipPath>
    <clipPath
       clipPathUnits="userSpaceOnUse"
       id="clipPath6068">
      <path
         d="m 493.34,75.5483 h 2.497 v -2.497 h -2.497 z"
         id="path6066"
         inkscape:connector-curvature="0" />
    </clipPath>
    <clipPath
       clipPathUnits="userSpaceOnUse"
       id="clipPath6084">
      <path
         d="m 497.536,25.7968 h 3.121 v -1.7562 h -3.121 z"
         id="path6082"
         inkscape:connector-curvature="0" />
    </clipPath>
    <clipPath
       clipPathUnits="userSpaceOnUse"
       id="clipPath6100">
      <path
         d="m 506.362,30.7335 h 1.985 v -1.9992 h -1.985 z"
         id="path6098"
         inkscape:connector-curvature="0" />
    </clipPath>
    <clipPath
       clipPathUnits="userSpaceOnUse"
       id="clipPath6116">
      <path
         d="m 503.775,17.4749 h 4.279 v -2.4738 h -4.279 z"
         id="path6114"
         inkscape:connector-curvature="0" />
    </clipPath>
    <clipPath
       clipPathUnits="userSpaceOnUse"
       id="clipPath6132">
      <path
         d="m 505.147,23.3873 h 3.216 v -1.7629 h -3.216 z"
         id="path6130"
         inkscape:connector-curvature="0" />
    </clipPath>
    <clipPath
       clipPathUnits="userSpaceOnUse"
       id="clipPath6148">
      <path
         d="m 519.733,37.4293 h 3.397 v -2.912 h -3.397 z"
         id="path6146"
         inkscape:connector-curvature="0" />
    </clipPath>
    <clipPath
       clipPathUnits="userSpaceOnUse"
       id="clipPath6164">
      <path
         d="m 525.442,28.0828 h 3.368 v -2.452 h -3.368 z"
         id="path6162"
         inkscape:connector-curvature="0" />
    </clipPath>
    <clipPath
       clipPathUnits="userSpaceOnUse"
       id="clipPath6180">
      <path
         d="m 516.243,26.8884 h 2.987 V 24.91 h -2.987 z"
         id="path6178"
         inkscape:connector-curvature="0" />
    </clipPath>
    <clipPath
       clipPathUnits="userSpaceOnUse"
       id="clipPath6196">
      <path
         d="m 520.107,16.3052 h 3.187 v -1.9528 h -3.187 z"
         id="path6194"
         inkscape:connector-curvature="0" />
    </clipPath>
    <clipPath
       clipPathUnits="userSpaceOnUse"
       id="clipPath6212">
      <path
         d="m 511.909,10.6943 h 4.18 V 9.21204 h -4.18 z"
         id="path6210"
         inkscape:connector-curvature="0" />
    </clipPath>
    <clipPath
       clipPathUnits="userSpaceOnUse"
       id="clipPath6228">
      <path
         d="m 526.109,7.60458 h 3.842 V 5.34299 h -3.842 z"
         id="path6226"
         inkscape:connector-curvature="0" />
    </clipPath>
    <clipPath
       clipPathUnits="userSpaceOnUse"
       id="clipPath6244">
      <path
         d="m 536.191,19.8476 h 2.763 v -2.1782 h -2.763 z"
         id="path6242"
         inkscape:connector-curvature="0" />
    </clipPath>
    <clipPath
       clipPathUnits="userSpaceOnUse"
       id="clipPath6260">
      <path
         d="m 512.311,18.6583 h 3.541 v -2.0358 h -3.541 z"
         id="path6258"
         inkscape:connector-curvature="0" />
    </clipPath>
    <clipPath
       clipPathUnits="userSpaceOnUse"
       id="clipPath6276">
      <path
         d="m 527.688,17.521 h 2.344 v -1.6785 h -2.344 z"
         id="path6274"
         inkscape:connector-curvature="0" />
    </clipPath>
    <clipPath
       clipPathUnits="userSpaceOnUse"
       id="clipPath6292">
      <path
         d="m 544.117,17.1681 h 4.33 v -2.6416 h -4.33 z"
         id="path6290"
         inkscape:connector-curvature="0" />
    </clipPath>
    <clipPath
       clipPathUnits="userSpaceOnUse"
       id="clipPath6308">
      <path
         d="m 550.566,28.0907 h 2.392 v -1.8368 h -2.392 z"
         id="path6306"
         inkscape:connector-curvature="0" />
    </clipPath>
    <clipPath
       clipPathUnits="userSpaceOnUse"
       id="clipPath6324">
      <path
         d="m 536.24,10.6893 h 1.953 V 9.47577 h -1.953 z"
         id="path6322"
         inkscape:connector-curvature="0" />
    </clipPath>
    <clipPath
       clipPathUnits="userSpaceOnUse"
       id="clipPath6340">
      <path
         d="m 536.093,33.6108 h 3.083 v -2.5181 h -3.083 z"
         id="path6338"
         inkscape:connector-curvature="0" />
    </clipPath>
    <clipPath
       clipPathUnits="userSpaceOnUse"
       id="clipPath6356">
      <path
         d="m 530.219,46.8427 h 2.924 v -2.436 h -2.924 z"
         id="path6354"
         inkscape:connector-curvature="0" />
    </clipPath>
    <clipPath
       clipPathUnits="userSpaceOnUse"
       id="clipPath6372">
      <path
         d="m 537.468,42.2623 h 2.202 v -1.8888 h -2.202 z"
         id="path6370"
         inkscape:connector-curvature="0" />
    </clipPath>
    <clipPath
       clipPathUnits="userSpaceOnUse"
       id="clipPath6388">
      <path
         d="m 546.862,36.5074 h 2.647 v -1.4828 h -2.647 z"
         id="path6386"
         inkscape:connector-curvature="0" />
    </clipPath>
    <clipPath
       clipPathUnits="userSpaceOnUse"
       id="clipPath6404">
      <path
         d="m 556.913,22.8041 h 2.08 v -1.5339 h -2.08 z"
         id="path6402"
         inkscape:connector-curvature="0" />
    </clipPath>
    <clipPath
       clipPathUnits="userSpaceOnUse"
       id="clipPath6420">
      <path
         d="m 540.042,25.1759 h 2.028 V 24.118 h -2.028 z"
         id="path6418"
         inkscape:connector-curvature="0" />
    </clipPath>
    <clipPath
       clipPathUnits="userSpaceOnUse"
       id="clipPath6436">
      <path
         d="m 575.927,3.30591 h 2.774 V 0.820404 h -2.774 z"
         id="path6434"
         inkscape:connector-curvature="0" />
    </clipPath>
    <clipPath
       clipPathUnits="userSpaceOnUse"
       id="clipPath6452">
      <path
         d="m 588.301,7.10339 h 1.924 V 4.89027 h -1.924 z"
         id="path6450"
         inkscape:connector-curvature="0" />
    </clipPath>
    <clipPath
       clipPathUnits="userSpaceOnUse"
       id="clipPath6468">
      <path
         d="m 587.945,14.8569 h 2.093 v -1.5467 h -2.093 z"
         id="path6466"
         inkscape:connector-curvature="0" />
    </clipPath>
    <clipPath
       clipPathUnits="userSpaceOnUse"
       id="clipPath6484">
      <path
         d="m 595.205,10.0274 h 1.982 V 8.16005 h -1.982 z"
         id="path6482"
         inkscape:connector-curvature="0" />
    </clipPath>
    <clipPath
       clipPathUnits="userSpaceOnUse"
       id="clipPath6500">
      <path
         d="m 596.212,0.632904 h 2.529 V -1.40804 h -2.529 z"
         id="path6498"
         inkscape:connector-curvature="0" />
    </clipPath>
    <clipPath
       clipPathUnits="userSpaceOnUse"
       id="clipPath6516">
      <path
         d="m 603.934,10.9952 h 1.674 V 9.02663 h -1.674 z"
         id="path6514"
         inkscape:connector-curvature="0" />
    </clipPath>
    <clipPath
       clipPathUnits="userSpaceOnUse"
       id="clipPath6532">
      <path
         d="m 599.549,22.5931 h 1.734 v -2.0248 h -1.734 z"
         id="path6530"
         inkscape:connector-curvature="0" />
    </clipPath>
  </defs>
  <sodipodi:namedview
     id="base"
     pagecolor="#4c4c4c"
     bordercolor="#666666"
     borderopacity="1.0"
     inkscape:pageopacity="0"
     inkscape:pageshadow="2"
     inkscape:zoom="2.2070312"
     inkscape:cx="163.2897"
     inkscape:cy="149.3042"
     inkscape:document-units="mm"
     inkscape:current-layer="layer2"
     showgrid="false"
     inkscape:window-width="2560"
     inkscape:window-height="1050"
     inkscape:window-x="0"
     inkscape:window-y="0"
     inkscape:window-maximized="1" />
  <metadata
     id="metadata5">
    <rdf:RDF>
      <cc:Work
         rdf:about="">
        <dc:format>image/svg+xml</dc:format>
        <dc:type
           rdf:resource="http://purl.org/dc/dcmitype/StillImage" />
        <dc:title></dc:title>
      </cc:Work>
    </rdf:RDF>
  </metadata>
  <g
     inkscape:groupmode="layer"
     id="layer2"
     inkscape:label="Layer 2"
     transform="translate(107.47122,-195.95066)"
     style="display:inline">
    <path
       inkscape:connector-curvature="0"
       id="path1191"
       d="m -43.187369,283.82052 c -0.254661,0.005 -0.47712,0.0314 -0.494353,-0.19018 -0.0437,-0.78272 0.08285,-1.55417 0.138721,-2.18281 0.08412,-0.94589 0.284269,-2.08344 0.324869,-2.55625 0.06032,-0.70249 -0.107107,-0.88675 -0.187574,-1.57511 l -0.494371,-0.75363 0.775134,-0.79973 c 0.493789,-0.50946 0.880062,-1.289 1.06422,-2.1477 0.223733,-0.86932 0.33541,-1.80258 0.435758,-2.61863 0.509051,-1.56758 0.72558,-3.17199 1.172644,-4.7625 0.124786,-0.43656 0.254506,-1.24023 0.288269,-1.78593 0.16005,-1.43745 0.660322,-2.8147 1.242407,-2.79031 0.355774,0.0679 0.859587,0.46502 0.920648,2.06557 0.04596,1.20474 -0.213434,3.61441 -0.70513,6.08556 -0.363464,2.24898 -0.644783,4.12009 -0.588525,4.17635 1.00076,0.0449 1.914389,-1.02649 2.493518,-1.60401 0.757891,-0.76159 1.699453,-2.03956 2.092357,-2.83992 1.060547,-2.48866 1.353034,-5.59662 -0.716151,-7.68105 -1.454003,-1.32962 -3.351766,-1.82949 -5.21427,-1.84396 -2.766175,0.28542 -5.327816,0.46787 -7.56049,2.19967 -0.537583,0.42657 -1.165847,1.17266 -1.396143,1.65797 -0.230296,0.48531 -0.539811,0.95723 -0.687811,1.0487 -0.148003,0.0915 -0.442473,0.0224 -0.654378,-0.15345 -0.211908,-0.17587 -0.385286,-0.70805 -0.385286,-1.18262 0,-0.66291 0.232306,-1.07273 1.002524,-1.76858 3.525166,-3.07173 6.62187,-4.57248 10.692265,-4.70268 2.912034,0.28981 5.602396,0.86522 7.43258,3.20849 0.367903,0.48572 0.87295,1.51144 1.122326,2.27937 0.582121,2.46464 0.505537,5.08641 -0.506834,7.22274 -1.093104,2.25845 -3.183395,3.75417 -5.190778,4.86434 -1.236927,0.67627 -2.557156,0.63278 -2.896799,1.88549 -0.172704,0.93775 -0.566477,3.12348 -0.831712,4.76355 -0.197708,1.25942 -0.187817,1.16583 -1.166281,1.82282 -0.567163,0.38082 -1.266692,0.6539 -1.521354,0.65844 z m 17.415928,-8.74388 c -0.156287,-0.0115 -0.641342,-0.14609 -1.077907,-0.29911 -0.43656,-0.15302 -1.002109,-0.45973 -1.256771,-0.68158 -0.315545,-0.27488 -0.462783,-0.79059 -0.462272,-1.61912 5.29e-4,-0.66867 0.417132,-3.23467 0.926042,-5.70222 0.50891,-2.46755 0.925293,-5.04798 0.925293,-5.73429 0,-1.2316 0.01968,-1.26016 1.513075,-2.19428 0.832191,-0.52054 1.681813,-0.94643 1.888048,-0.94643 0.290822,0 0.339233,0.26073 0.21572,1.16185 -0.08759,0.63902 -0.645969,3.26716 -1.240851,5.84032 -0.618384,2.67483 -1.047162,5.15169 -1.001191,5.78346 0.07133,0.9803 0.161174,1.11431 0.796102,1.18756 0.535075,0.0617 1.00996,-0.18867 1.881675,-0.99218 0.641286,-0.59112 1.241956,-1.07476 1.334825,-1.07476 0.09287,0 0.168847,0.28639 0.168847,0.63642 0,0.35004 -0.431097,1.15371 -0.957988,1.78594 -0.526896,0.63223 -1.500354,1.53647 -2.163241,2.00941 -0.662887,0.47294 -1.333119,0.85049 -1.489406,0.83901 z m 7.955457,-1.84 c -0.166163,-0.005 -0.546028,-0.2132 -0.844147,-0.46302 -0.29812,-0.24982 -0.617591,-0.6516 -0.709941,-0.89285 -0.09235,-0.24125 -0.05923,-1.61046 0.07359,-3.04271 0.132826,-1.43224 0.379061,-3.18705 0.547185,-3.89958 0.190971,-0.80934 0.651362,-1.67813 1.226831,-2.3151 0.506632,-0.56079 1.065133,-1.01961 1.241115,-1.01961 0.175982,0 0.581639,0.27854 0.901459,0.61898 l 0.581494,0.61897 -0.667322,2.75446 c -0.367027,1.51496 -0.667475,3.02236 -0.667665,3.34978 -1.88e-4,0.32742 0.11199,0.59532 0.249282,0.59532 0.137295,0 0.455253,-0.3481 0.706575,-0.77356 0.251323,-0.42545 0.944777,-1.99176 1.54101,-3.48068 0.743112,-1.8557 1.312334,-2.87756 1.809853,-3.24901 0.688854,-0.5143 0.749205,-0.51852 1.185926,-0.0829 0.365282,0.36439 0.494239,1.12546 0.625563,3.69184 0.09098,1.77806 0.2552536,3.56841 0.3650416,3.97858 0.168027,0.62773 0.06036,0.88943 -0.6803486,1.65364 -0.483981,0.49934 -1.016749,0.9079 -1.183931,0.9079 -0.167179,0 -0.501012,-0.21774 -0.741847,-0.48386 -0.306919,-0.33914 -0.437882,-0.96752 -0.437882,-2.10105 0,-0.88946 -0.110993,-1.68579 -0.246653,-1.76963 -0.135657,-0.0838 -0.632468,0.57142 -1.104021,1.45615 -0.471554,0.88472 -1.445001,2.13692 -2.163215,2.78266 -0.718214,0.64573 -1.441794,1.1701 -1.607955,1.16526 z m 11.4411466,-1.58674 c -0.49244,-0.004 -1.103704,-0.12941 -1.358366,-0.27773 -0.254661,-0.14833 -0.46302,-0.55229 -0.46302,-0.8977 0,-0.34541 0.308239,-0.99433 0.684977,-1.44206 0.37674,-0.44773 0.891765,-0.81405 1.144505,-0.81405 0.252741,0 0.739159,0.29765 1.080934,0.66146 0.341776,0.3638 0.779249,0.66146 0.972162,0.66146 0.192915,0 0.350755,-0.24596 0.350755,-0.54657 0,-0.3006 -0.138277,-0.80662 -0.307282,-1.12447 -0.169005,-0.31786 -0.764318,-1.12137 -1.322916,-1.78558 -0.576041,-0.68494 -1.015635,-1.48972 -1.015635,-1.85935 0,-0.35844 0.19604,-0.94609 0.435647,-1.30589 0.239604,-0.3598 0.97927,-1.21973 1.6437,-1.91096 0.944576,-0.98267 1.391592,-1.25677 2.049587,-1.25677 0.523293,0 0.902269,0.15827 1.002133,0.41852 0.08833,0.23018 0.160599,0.76177 0.160599,1.18131 0,0.46965 -0.186923,0.86284 -0.486391,1.02311 -0.267515,0.14317 -0.743765,0.19301 -1.058333,0.11074 -0.411711,-0.10766 -0.571942,-0.0299 -0.571942,0.27741 0,0.23483 0.400494,0.8738 0.889987,1.41992 0.489489,0.54612 1.089575,1.38322 1.333521,1.86022 0.3109719,0.60805 0.3895139,1.15523 0.2627869,1.83075 -0.1167509,0.62233 -0.5655129,1.34767 -1.2673779,2.04849 -0.618737,0.6178 -1.555552,1.2251 -2.175656,1.41039 -0.598966,0.17896 -1.491935,0.32177 -1.984375,0.31735 z"
       style="fill:#d56104;stroke-width:0.26458338"
       sodipodi:nodetypes="ccccccccccccscccccccsccscccccccccccccccsscscscccsscscccscccsccccscccccccscscccccccscscssccsccscsccscccccc" />
    <path
       inkscape:connector-curvature="0"
       id="path1189"
       d="m 0.9110305,288.80906 c -1.71015,0.0784 -2.7540819,-0.0102 -3.7041659,-0.31415 -0.727605,-0.23279 -1.832497,-0.76681 -2.455315,-1.1867 l -1.132401,-0.76345 -0.264512,0.724 c -0.145484,0.39819 -0.316778,0.87282 -0.380653,1.05472 -0.08793,0.2504 -1.466128,0.33073 -5.6744416,0.33073 h -5.558306 l -0.0724,-4.56406 -0.07239,-4.56406 h -2.513542 -2.513542 l -0.0731,4.04634 -0.133041,5.08033 c -1.28917,0.0382 -2.548369,0.0464 -3.792584,0.0396 l -0.04307,-5.26369 -0.07304,-4.03489 h -2.374361 c -1.727583,0 -2.372066,0.0901 -2.365944,0.33072 0.0046,0.18191 0.183224,0.56185 0.396875,0.84432 0.213654,0.28248 0.387798,1.05639 0.386985,1.7198 -7.93e-4,0.66341 -0.130966,1.68245 -0.289234,2.26453 -0.158266,0.58208 -0.586071,1.37477 -0.950675,1.76152 -0.364606,0.38676 -1.357606,1.01495 -2.206672,1.39599 -1.038368,0.46599 -2.22676,0.74546 -3.630076,0.85368 -1.217101,0.0939 -2.850388,0.0283 -3.920241,-0.15737 -1.008655,-0.17505 -2.310167,-0.53384 -2.89225,-0.79731 -0.582084,-0.26348 -1.519783,-0.91015 -2.083777,-1.43705 -0.563993,-0.5269 -1.070009,-0.958 -1.124479,-0.958 -0.05447,0 -0.09904,0.53578 -0.09904,1.19062 v 2.2396 c -2.019749,0 -3.470058,-0.0749 -5.489806,-0.0749 l -3.258322,-4.34748 c -1.47889,-1.85539 -2.79084,-3.41192 -2.91545,-3.45895 -0.12461,-0.047 -0.269595,1.44106 -0.30077,3.30729 l -0.0742,4.44178 c -1.265553,0.007 -2.396239,-6.3e-4 -3.586865,0.0515 l 0.01599,-2.47752 c 5.3e-4,-0.84339 0.0786,-3.23008 0.17345,-5.30375 l 0.17248,-3.77031 h 2.55105 2.55104 l 2.897905,3.62566 c 1.593845,1.99411 3.04673,3.67091 3.228631,3.72621 0.25231,0.0767 0.330729,-0.68374 0.330729,-3.20714 0,-1.81924 0.07227,-3.49604 0.1606,-3.72622 0.123272,-0.32124 0.553746,-0.41851 1.852083,-0.41851 h 1.691484 v 1.5875 c 0,0.87312 0.07487,1.5875 0.16637,1.5875 0.0915,0 0.640739,-0.42857 1.22052,-0.95237 0.579784,-0.5238 1.546715,-1.17602 2.148734,-1.4494 0.602023,-0.27337 1.37866,-0.49964 1.725859,-0.50284 0.250668,0.0205 0.422517,1.0122 0.35072,1.55211 -0.09779,0.71347 -0.08305,1.01681 -0.625082,1.52732 -0.358154,0.38124 -0.610032,1.068 -0.687539,1.87461 -0.07816,0.81339 0.02765,1.63188 0.293071,2.26712 0.291497,0.69765 0.691883,1.10968 1.342451,1.38151 0.521187,0.21776 1.756934,0.38735 2.822565,0.38735 1.446776,0 2.102469,-0.12791 2.769793,-0.54034 0.539554,-0.33347 0.993793,-0.90243 1.186408,-1.48606 0.171661,-0.52014 0.246115,-1.43777 0.165449,-2.03918 -0.107868,-0.80422 -0.392533,-1.31879 -1.076108,-1.94525 -0.511194,-0.46847 -1.262682,-0.92497 -1.669974,-1.01444 -0.407291,-0.0895 -1.357895,-0.15316 -1.549091,-0.21277 0.07534,-0.64941 0.09442,-1.15643 0.152147,-1.89008 l 1.942233,0.0601 c 1.279099,0.0423 2.244492,0.25668 3.269269,0.72584 0.799801,0.36616 1.560591,0.59998 1.690647,0.51961 0.130056,-0.0804 0.236466,-0.37725 0.236466,-0.6597 0,-0.50134 0.307489,-0.51355 12.935138,-0.51355 h 12.9351376 l 0.171984,0.91676 c 0.09459,0.50422 0.285737,0.98706 0.424765,1.07298 0.139028,0.0859 0.664829,-0.15806 1.168448,-0.54218 0.503615,-0.38413 1.47574,-0.86698 2.160272,-1.07299 0.768969,-0.23143 2.4166119,-0.37291 4.311409,-0.37022 2.687273,0.004 3.19681,0.078 4.117314,0.59934 0.577779,0.32725 1.321919,0.99774 1.653646,1.48999 0.331724,0.49224 0.603136,0.98256 0.603136,1.08959 0,0.10703 -0.267891,0.26639 -0.595312,0.35413 -0.327422,0.0878 -1.124694,0.16117 -1.771717,0.16315 -0.856461,0.003 -1.461949,-0.19427 -2.226336,-0.72399 -0.848619,-0.58809 -1.342252,-0.7276 -2.5745071,-0.7276 -1.133695,0 -1.7160949,0.14215 -2.2715799,0.55443 -0.410853,0.30494 -0.901692,1.01682 -1.090756,1.58195 -0.207904,0.62145 -0.273629,1.44254 -0.166314,2.07772 0.101674,0.60182 0.474914,1.3477 0.874167,1.74696 0.50853,0.50853 1.079691,0.74209 2.1144129,0.86464 0.954008,0.11298 1.7038161,0.0483 2.2925541,-0.19765 0.481184,-0.20105 1.007713,-0.61375 1.170066,-0.91711 0.258715,-0.48341 0.539242,-0.55157 2.270255,-0.55157 1.929741,0 1.975067,0.0152 1.975067,0.6607 0,0.38387 -0.389305,1.09161 -0.929161,1.68916 -0.656828,0.72703 -1.296604,1.12171 -2.182813,1.34656 -0.689509,0.17495 -2.325213,0.36718 -3.6349011,0.42718 z M -9.6723024,286.0694 c 1.455208,-0.0701 2.693405,-0.16994 2.751553,-0.22197 0.05815,-0.052 -0.0058,-0.48357 -0.142195,-0.95901 l -0.247912,-0.86442 h -3.5619736 -3.561972 l -0.08117,0.97624 c -0.08084,0.97231 -0.07658,0.97669 1.058333,1.08639 0.626724,0.0606 2.330127,0.0528 3.7853326,-0.0172 z m -1.2214826,-4.55894 c 3.2712816,0 3.6878786,-0.0507 3.8064406,-0.46302 0.07322,-0.25466 0.218908,-0.67138 0.323749,-0.92604 0.176591,-0.42895 -0.103494,-0.46302 -3.8064406,-0.46302 h -3.997057 v 0.92604 0.92604 z m -95.012155,7.05419 c 0,0 5.43636,-8.00941 8.602951,-11.82625 l 6.10351,0.0709 6.10352,0.0709 1.09017,1.98438 c 0.5996,1.09141 1.56678,2.87734 2.14931,3.96875 0.58253,1.09141 1.16469,1.98437 1.29369,1.98437 0.12901,0 1.18979,-1.75376 2.35731,-3.89725 l 2.12276,-3.89725 2.84427,-0.005 2.84427,-0.005 v 5.55625 6.02079 c -1.146527,0 -2.278068,0 -3.424595,0 l -0.01498,-4.58763 c -0.0093,-2.85463 -0.0886,-4.09356 -0.288,-4.02709 -0.15841,0.0528 -1.2002,1.87842 -2.31511,4.05694 l -2.117012,4.48542 c -1.531233,0.0508 -2.837687,0.0117 -4.368921,0.0625 l -2.203637,-4.46375 c -1.13783,-2.21605 -2.39951,-4.13312 -2.39951,-4.13312 l -0.345715,8.45775 -6.701914,-0.0132 -0.262432,-2.49054 -5.063562,-0.0786 -1.605668,2.67518 z m 10.895662,-5.2672 -0.173894,-3.55451 -2.839735,3.46806 z m 25.73438,5.30713 -0.05994,-6.03578 v -5.55625 h 0.75682 c 0.41625,0 1.30922,-0.0757 1.98437,-0.16826 l 1.22756,-0.16825 v 5.7245 l 0.01499,6.1441 c -1.378279,0.0233 -2.560639,0.0599 -3.923794,0.0599 z m 7.529599,-35.14833 c -0.96716,-0.006 -1.60598,-0.17518 -2.16559,-0.57382 -0.43656,-0.31099 -1.19268,-0.9323 -1.68026,-1.38068 -0.48759,-0.44839 -1.33358,-1.47009 -1.87999,-2.27046 -0.54641,-0.80036 -1.21904,-1.87192 -1.49474,-2.38125 -0.45504,-0.84065 -0.51345,-1.74332 -0.63355,-9.78958 l -0.13229,-8.86354 -6.95526,-0.16429 c -3.8254,-0.0904 -7.01617,-0.22519 -7.0906,-0.29963 -0.0744,-0.0744 0.0509,-0.9382 0.27844,-1.91947 0.22757,-0.98128 0.88622,-2.69192 1.46367,-3.80142 0.57744,-1.1095 1.6009,-2.64687 2.27435,-3.41637 0.67345,-0.76951 1.92824,-1.87703 2.78841,-2.46117 0.86018,-0.58413 2.06739,-1.24358 2.68268,-1.46543 0.623,-0.22463 2.46702,-0.46605 4.16144,-0.54481 2.57498,-0.11969 3.38842,-0.0527 5.29166,0.43573 1.23693,0.31743 2.74354,0.86477 3.34802,1.21629 0.60449,0.35152 1.75795,1.24131 2.56325,1.97731 0.8053,0.736 1.94302,2.09635 2.52825,3.02301 0.585237,0.92665 1.30701,2.406 1.603941,3.28742 0.305258,0.90614 0.539875,2.2921 0.539875,3.1892 0,0.87263 -0.193062,2.1563 -0.429025,2.85261 -0.235963,0.69631 -0.779187,1.75429 -1.207164,2.35107 -0.427977,0.59678 -1.276717,1.37056 -1.886077,1.7195 -0.95555,0.54718 -1.45367,0.63448 -3.62148,0.63474 -2.05621,2.4e-4 -2.68204,-0.0983 -3.43959,-0.54182 -0.50932,-0.29816 -1.46024,-1.21051 -2.11314,-2.02743 -0.65291,-0.81693 -1.27799,-1.42916 -1.38906,-1.3605 -0.11108,0.0686 -0.20196,3.41033 -0.20196,7.42596 v 7.30115 l 0.90747,1.61292 c 0.49911,0.88711 1.48138,2.16567 2.18281,2.84125 0.70144,0.67557 1.67336,1.42849 2.15982,1.67315 0.48647,0.24466 0.95639,0.37294 1.04427,0.28506 0.0879,-0.0879 -0.072,-0.8408 -0.35532,-1.67316 -0.34488,-1.01328 -0.51301,-2.21281 -0.50879,-3.63004 0.005,-1.54927 0.13812,-2.36181 0.49806,-3.03119 0.27047,-0.50299 1.89098,-2.36542 3.60114,-4.13874 2.26096,-2.34447 3.336929,-3.68646 3.943365,-4.91831 0.4587,-0.93174 1.00683,-2.34353 1.21807,-3.1373 0.211238,-0.79376 0.384194,-2.5743 0.384347,-3.95675 1.59e-4,-1.44308 -0.163713,-3.05402 -0.384789,-3.78264 -0.211788,-0.698 -0.747268,-1.94816 -1.18996,-2.77812 -0.442693,-0.82997 -1.552313,-2.37403 -2.465813,-3.43126 -0.91351,-1.05723 -2.30838,-2.35826 -3.09972,-2.89118 -0.79134,-0.53292 -2.27536,-1.23242 -3.29782,-1.55444 -1.02246,-0.32203 -2.70117,-0.66808 -3.73047,-0.76901 -1.28034,-0.12553 -2.64255,-0.0504 -4.31275,0.23781 -1.34272,0.23171 -3.0197,0.71439 -3.72661,1.07261 -0.70691,0.35822 -2.07344,1.31994 -3.03672,2.13715 -0.96339,0.8173 -2.34701,2.36846 -3.07512,3.44746 -0.72803,1.07889 -1.45237,1.96162 -1.60965,1.96162 -0.18697,0 -0.22189,-0.34348 -0.10087,-0.99219 0.10181,-0.5457 0.53365,-1.89733 0.95965,-3.00363 0.426,-1.10629 1.15842,-2.59097 1.62758,-3.29929 0.46917,-0.70831 1.55263,-2.03571 2.40768,-2.94976 0.85505,-0.91405 2.40408,-2.18973 3.44228,-2.83483 1.03821,-0.6451 2.82113,-1.48497 3.96206,-1.86638 1.20951,-0.40433 2.97456,-0.75464 4.23334,-0.84019 1.1874,-0.0807 3.09563,-0.0139 4.2405,0.14852 1.14488,0.16238 2.9077,0.58253 3.91739,0.93366 1.00968,0.35113 2.665559,1.13138 3.679726,1.73389 1.014166,0.6025 2.673112,1.92463 3.686543,2.93807 1.427773,1.42777 2.109943,2.39218 3.030055,4.28372 0.653098,1.34262 1.438389,3.39362 1.745092,4.55779 0.317899,1.20666 0.6185,3.36792 0.699195,5.02708 0.101021,2.077 0.02051,3.55442 -0.281146,5.15937 -0.26462,1.4079 -0.813377,3.04055 -1.467337,4.36563 -0.574548,1.16417 -1.725647,3.06917 -2.557994,4.23333 -0.83235,1.16417 -2.315893,3.00964 -3.296766,4.10104 -0.980874,1.09141 -2.699166,2.75829 -3.818428,3.70417 -1.11926,0.94589 -2.20438,2.0413 -2.41137,2.43426 -0.20698,0.39295 -0.37634,1.08895 -0.37634,1.54665 0,0.45771 0.24616,1.17789 0.54702,1.60041 l 0.54701,0.76821 -0.69653,0.26482 c -0.38309,0.14565 -1.31386,0.26105 -2.06837,0.25644 z m 0.13229,-19.85401 c 0.53623,0.0102 1.31014,-0.10708 1.71979,-0.26073 0.40966,-0.15366 1.18738,-0.58384 1.72826,-0.95596 0.57779,-0.39751 1.25988,-1.23134 1.65365,-2.02153 0.368617,-0.73973 0.669552,-1.76806 0.668739,-2.28519 -7.93e-4,-0.51714 -0.133318,-1.41649 -0.29446,-1.99858 -0.181369,-0.65515 -0.760379,-1.52527 -1.519879,-2.28403 -0.99228,-0.99131 -1.5053,-1.28323 -2.68281,-1.52653 -1.19287,-0.24647 -1.70448,-0.22701 -2.83172,0.10775 -0.7567,0.22471 -1.74387,0.71827 -2.19371,1.09679 -0.44984,0.37851 -1.0508,1.14474 -1.33546,1.70272 -0.34732,0.68079 -0.51757,1.54879 -0.51757,2.63871 0,0.91375 0.17807,1.99945 0.40709,2.48209 0.2239,0.47183 0.79173,1.23068 1.26185,1.68633 0.47011,0.45565 1.32871,1.00195 1.90801,1.21399 0.57929,0.21204 1.49199,0.39391 2.02822,0.40417 z"
       style="fill:#004d9e;stroke-width:0.26458338"
       sodipodi:nodetypes="ccccccsccccccccccscccccccscsssccccscccccccscscscssccccccscscsscccccccssccccccccscccscccccccssccccccccccccccsccscccscccccsssccccccscccccccccccccccccccscccccccsccccccccccssccscsssssccccscsccscccccsscccscccsccscccsccsccccsccssccccsccsccccccccccccscccc" />
    <path
       inkscape:connector-curvature="0"
       id="path1187"
       d="m -49.429199,275.36211 c -1.380125,0 -2.09486,-0.15182 -3.12016,-0.66275 -0.731475,-0.3645 -1.595742,-0.94566 -1.920595,-1.29145 -0.324852,-0.34579 -0.862634,-1.43629 -1.19507,-2.42335 -0.595115,-1.76698 -0.623005,-1.79936 -1.809425,-2.1006 -0.66275,-0.16828 -1.50647,-0.50349 -1.87494,-0.74492 -0.36846,-0.24143 -0.96391,-0.82836 -1.32322,-1.3043 -0.3593,-0.47594 -0.79646,-1.3502 -0.97145,-1.94281 l -0.31817,-1.07747 -2.15898,0.0191 c -1.92737,0.0171 -2.34894,-0.0743 -3.92958,-0.85174 -1.19713,-0.58881 -2.19099,-1.34255 -3.06861,-2.32721 -0.79662,-0.89379 -1.46533,-1.97441 -1.73117,-2.79753 -0.23823,-0.73765 -0.43315,-1.84673 -0.43315,-2.46461 v -1.12343 l 4.29947,-0.19472 c 2.36472,-0.1071 5.22358,-0.18217 6.35302,-0.16681 1.20565,0.0164 2.40733,-0.12148 2.91041,-0.3339 0.47129,-0.19898 3.17861,-2.52802 6.016263,-5.17564 2.837656,-2.64762 5.55626,-5.25404 6.041342,-5.79206 0.485082,-0.53801 1.062448,-1.39493 1.283036,-1.90425 0.220586,-0.50932 0.515856,-1.28323 0.656148,-1.71979 0.146894,-0.4571 0.315643,-8.25621 0.39787,-18.38854 0.128476,-15.83143 0.18646,-17.64465 0.578549,-18.09227 0.23967,-0.27362 1.644618,-1.49401 3.122107,-2.71198 l 2.686341,-2.2145 h 5.963147 c 3.27973,0 6.02343,0.0975 6.097109,0.21675 0.07368,0.11922 -0.722966,0.99117 -1.770322,1.93768 -1.047358,0.94651 -2.916317,2.59667 -4.153244,3.66702 -1.236927,1.07035 -2.874036,2.54581 -3.638021,3.2788 l -1.389062,1.33271 -0.01826,12.17987 c -0.01005,6.69893 -0.109527,13.90628 -0.221077,16.01633 -0.184124,3.48283 -0.280499,4.01701 -1.04552,5.79519 -0.463484,1.0773 -1.27068,2.66326 -1.793769,3.52436 -0.714034,1.17543 -2.674459,3.14992 -7.865909,7.92237 -3.803163,3.4962 -7.427693,6.88141 -8.054518,7.52267 -0.62682,0.64127 -1.06628,1.2847 -0.97657,1.42984 0.0897,0.14515 0.6403,0.26391 1.22355,0.26391 1.010331,0 1.281582,-0.21058 5.739076,-4.45528 2.573242,-2.45041 6.202394,-5.87345 8.064783,-7.60677 3.033995,-2.82373 3.493733,-3.37163 4.420489,-5.26816 0.690919,-1.4139 1.169844,-2.89682 1.442487,-4.46643 0.33396,-1.92264 0.408151,-4.96174 0.408151,-16.71928 0,-9.56627 0.09102,-14.42578 0.272315,-14.53782 0.149772,-0.0926 1.132038,0.57744 2.182812,1.4889 1.050774,0.91146 2.476045,2.19608 3.167269,2.85472 l 1.256771,1.19752 -7.94e-4,11.12244 c -5.29e-4,6.11735 -0.127497,12.47389 -0.28222,14.12566 -0.154726,1.65176 -0.514231,3.91395 -0.798904,5.02708 -0.284671,1.11313 -0.853784,2.74236 -1.264695,3.62051 -0.583153,1.24623 -1.467324,2.30567 -4.02884,4.82746 -2.701295,2.65939 -3.422115,3.2327 -4.075478,3.24143 -0.436562,0.006 -1.470638,0.17244 -2.297948,0.37021 -0.827307,0.19778 -2.196526,0.69203 -3.042708,1.09834 -0.84618,0.4063 -2.06964,1.09668 -2.718798,1.53417 -0.649158,0.43748 -1.631423,1.203 -2.182812,1.70115 -0.770218,0.69585 -1.002525,1.10567 -1.002525,1.76858 0,0.47457 0.173379,1.00675 0.385286,1.18262 0.211905,0.17586 0.506376,0.24491 0.654378,0.15345 0.148,-0.0915 0.457515,-0.56339 0.687811,-1.0487 0.230296,-0.48531 0.85856,-1.23005 1.396143,-1.65497 0.537583,-0.42492 1.618379,-1.03483 2.401768,-1.35534 0.783392,-0.32051 1.765657,-0.58274 2.182813,-0.58274 0.417158,0 0.758467,0.0909 0.758467,0.20198 0,0.11109 -1.666875,1.86567 -3.704166,3.89906 -2.037292,2.03339 -3.704167,3.8475 -3.704167,4.03135 0,0.18385 0.281599,0.33428 0.625777,0.33428 0.344178,0 0.969256,-0.26359 1.389062,-0.58574 0.419807,-0.32216 1.775317,-1.51732 3.012244,-2.65591 l 2.248959,-2.07017 1.455208,0.0762 1.455208,0.0762 -0.08083,0.92604 c -0.04446,0.50932 -0.17961,1.28323 -0.300339,1.71979 -0.120727,0.43657 -0.364987,1.50813 -0.542801,2.38125 -0.17781,0.87313 -0.444894,1.91694 -0.593516,2.3196 -0.148621,0.40264 -0.910182,1.31697 -1.692354,2.03184 -0.839721,0.76745 -2.021798,1.52411 -2.886384,1.84759 -0.951019,0.35582 -2.091735,0.54785 -3.25446,0.54785 z m 13.022561,-9.2538 -2.016667,1.97776 0.161671,-1.05834 c 0.08892,-0.58208 0.162981,-1.62388 0.164581,-2.3151 l 0.0029,-1.25677 h 1.852086 c 1.324663,0 1.85208,0.0961 1.85208,0.33735 0,0.18554 -0.907499,1.22734 -2.016664,2.3151 z m 8.082087,-19.3212 c -0.116692,0 -0.294111,-0.54646 -0.394269,-1.21436 -0.100158,-0.66789 -0.130781,-7.39144 -0.06805,-14.94121 0.06273,-7.54978 0.199409,-13.81222 0.303731,-13.91654 0.104323,-0.10433 0.734269,0.33867 1.399881,0.98444 0.66561,0.64577 1.663944,1.8357 2.218513,2.6443 0.554572,0.8086 1.304888,2.17781 1.667373,3.04271 0.362481,0.86489 0.856956,2.22738 1.09883,3.02774 0.241874,0.80037 0.50877,2.77017 0.593101,4.37735 0.09346,1.78121 0.03132,3.62274 -0.159147,4.71651 -0.171863,0.9869 -0.552188,2.43505 -0.845169,3.21811 -0.292979,0.78306 -1.124419,2.33018 -1.847639,3.43805 -0.723222,1.10786 -1.86396,2.60124 -2.53497,3.3186 -0.67101,0.71736 -1.315492,1.3043 -1.432185,1.3043 z"
       style="fill:#007e19;stroke-width:0.26458338"
       sodipodi:nodetypes="ccccccccccsccsccccscccscccscsssccssscccscsccscscccccccccccssccsscsssssccccccccccccccccccssccscscccscccccss" />
  </g>
</svg>
